<svg width="164" height="26" viewBox="0 0 164 26" fill="none" xmlns="http://www.w3.org/2000/svg">
<path d="M0.637987 12.1591C1.23844 9.15677 3.86544 7.05518 7.6183 7.05518C11.9716 7.05518 15.3117 8.85655 15.3117 14.7485V25.6318H11.6339L11.1835 23.305C9.90754 24.8812 8.18123 25.932 5.55423 25.932C2.43936 25.932 0 23.9806 0 20.3778C0 16.7751 3.22746 14.4108 7.80594 14.4108H10.8458V13.5851C10.8458 11.5211 9.30708 10.8831 7.6183 10.8831C6.34233 10.8831 5.02883 11.2959 4.4659 12.9847L0.637987 12.1591ZM6.5675 22.1041C8.63157 22.1041 10.7707 20.7156 10.7707 18.3513V18.0135H7.76841C5.81693 17.9385 4.65354 18.7266 4.65354 20.3028C4.69107 21.1659 5.32906 22.1041 6.5675 22.1041Z" fill="#010202"/>
<path d="M88.4173 12.1591C89.0177 9.15677 91.6447 7.05518 95.3976 7.05518C99.7509 7.05518 103.091 8.85655 103.091 14.7485V25.6318H99.4132L98.9628 23.305C97.6868 24.8812 95.9605 25.932 93.3335 25.932C90.2186 25.932 87.7793 23.9806 87.7793 20.3778C87.7793 16.7751 91.0067 14.4108 95.5852 14.4108H98.625V13.5851C98.625 11.5211 97.0864 10.8831 95.3976 10.8831C94.1216 10.8831 92.8081 11.2959 92.2452 12.9847L88.4173 12.1591ZM94.3468 22.1041C96.4109 22.1041 98.55 20.7156 98.55 18.3513V18.0135H95.5477C93.5962 18.0135 92.4328 18.7266 92.4328 20.3403C92.4704 21.1659 93.1084 22.1041 94.3468 22.1041Z" fill="#010202"/>
<path d="M107.182 25.6693V7.31787H111.685V10.3202C112.961 8.1435 115.025 7.05518 117.089 7.05518C117.915 7.05518 118.553 7.16776 119.303 7.39293L118.478 11.5586C117.952 11.2208 117.352 11.0332 116.601 11.0332C113.974 11.0332 111.685 13.2099 111.685 19.1018V25.5943L107.182 25.6693Z" fill="#010202"/>
<path d="M128.911 7.05537C130.787 7.05537 132.551 7.99358 133.377 9.00686V0H137.88V25.7071H133.377V23.8306C132.851 24.7689 131.2 26.0073 128.911 26.0073C123.394 26.0073 120.579 22.2169 120.579 16.5876C120.579 10.9208 123.394 7.05537 128.911 7.05537ZM129.549 22.1043C131.875 22.1043 133.752 20.1528 133.752 16.5501C133.752 12.9098 131.875 10.9959 129.549 10.9959C127.222 10.9959 125.345 12.9474 125.345 16.5501C125.308 20.1904 127.184 22.1043 129.549 22.1043Z" fill="#010202"/>
<path d="M154.167 9.98267L151.465 12.4596C150.64 11.3337 149.401 10.8834 148.425 10.8834C147.562 10.8834 146.737 11.4088 146.737 12.422C146.737 13.2477 147.375 13.8106 148.5 14.1859C151.015 15.1241 155.106 15.8747 155.106 19.8152C155.106 23.1552 152.591 25.8948 148.613 25.8948C144.823 25.8948 142.233 23.1927 141.333 20.9785L144.898 19.0271C145.536 20.7909 146.774 22.0669 148.576 22.0669C149.964 22.0669 150.865 21.4289 150.865 20.0779C150.865 18.5392 148.538 18.2014 146.286 17.2632C144.297 16.4376 142.608 15.1616 142.608 12.347C142.608 9.53233 144.898 7.01792 148.463 7.01792C150.865 6.98039 153.041 8.21883 154.167 9.98267Z" fill="#010202"/>
<path d="M60.3085 7.35596L57.0811 19.928L53.9662 7.35596H49.763L46.6857 19.928L44.1337 12.61L43.8335 13.5106L42.3699 18.2017L44.6966 25.6699H48.7122L51.8646 13.8484L55.017 25.6699H58.995L64.8495 7.35596H60.3085Z" fill="#010202"/>
<path d="M82.0748 7.35596L78.8098 19.928L75.695 7.35596H71.4918L68.4519 19.928L65.8625 12.61L65.5622 13.5106L64.0986 18.2017L66.4629 25.6699H70.441L73.5934 13.8484L76.7458 25.6699H80.7238L86.6158 7.35596H82.0748Z" fill="#010202"/>
<path d="M43.1204 7.35596L37.2659 25.6324H33.2879L30.1355 13.8109L26.9831 25.7074H23.0051L17.1506 7.43102H21.7291L24.9941 19.9656L28.109 7.43102H32.2746L35.3895 19.9656L38.6545 7.43102L43.1204 7.35596Z" fill="#010202"/>
<path d="M160.96 19.7778C162.724 19.7778 164 21.0538 164 22.8176C164 24.5815 162.724 25.8575 160.96 25.8575C159.196 25.8575 157.92 24.5815 157.92 22.8176C157.92 21.0538 159.234 19.7778 160.96 19.7778Z" fill="#010202"/>
</svg>
