<svg width="164" height="28" viewBox="0 0 164 28" fill="none" xmlns="http://www.w3.org/2000/svg">
<path fill-rule="evenodd" clip-rule="evenodd" d="M43.8265 0L29.8417 27.3364H16.7074L22.5592 16.0071H22.2958C17.4678 22.275 10.2639 26.4004 0 27.3364V16.1643C0 16.1643 6.56601 15.776 10.4256 11.7176H0.00231165V0H11.7199V9.63754H11.9834L16.7721 0H25.6331V9.57745H25.8966L30.8655 0H43.8265Z" fill="#146EF5"/>
<path d="M120.081 24.3202H123.855V2.65771H120.081V24.3202Z" fill="#1D1D1B"/>
<path fill-rule="evenodd" clip-rule="evenodd" d="M99.2783 24.0986C100.099 24.4407 100.933 24.6094 101.781 24.6094C103.182 24.6094 104.434 24.2674 105.542 23.5856C106.646 22.9038 107.504 21.9631 108.114 20.7659C108.722 19.5595 109.027 18.189 109.027 16.6613C109.027 15.1313 108.712 13.7631 108.086 12.5567C107.46 11.3503 106.588 10.4143 105.472 9.75096C104.358 9.07841 103.089 8.7456 101.67 8.75485C100.767 8.75485 99.9 8.9305 99.0726 9.27949C98.2429 9.63078 97.5518 10.1277 96.9995 10.7725C96.9579 10.821 96.9163 10.8719 96.8747 10.9204V2.67188H93.0867V24.3205H96.8469L96.84 22.2982C96.9371 22.4184 97.0411 22.534 97.152 22.6472C97.7483 23.2643 98.4578 23.7473 99.2783 24.0986ZM103.147 20.6019C102.53 20.9786 101.825 21.1681 101.032 21.1681C100.249 21.1681 99.5302 20.974 98.8761 20.588C98.2221 20.1905 97.7021 19.652 97.3138 18.9702C96.9371 18.2884 96.7475 17.5141 96.7475 16.6475C96.7383 15.7808 96.9232 15.0065 97.2999 14.3247C97.6859 13.6337 98.2082 13.0998 98.8623 12.7208C99.5163 12.3348 100.24 12.1453 101.032 12.1546C101.825 12.1453 102.53 12.3302 103.147 12.7069C103.773 13.0744 104.252 13.606 104.585 14.297C104.927 14.9788 105.095 15.7623 105.095 16.6475C105.095 17.5326 104.924 18.3161 104.585 18.9979C104.254 19.6797 103.776 20.2136 103.147 20.6019Z" fill="#1D1D1B"/>
<path d="M49.2947 3.9707H53.6073L57.4646 18.0619L61.5692 3.9707H65.1631L69.6144 17.7776L73.3192 3.9707H77.2736L71.4402 24.3182H67.7216L63.1963 10.8302L59.0408 24.3182H55.2806L49.2947 3.9707Z" fill="#1D1D1B"/>
<path fill-rule="evenodd" clip-rule="evenodd" d="M83.6434 24.6786C82.1411 24.6878 80.7868 24.355 79.578 23.6825C78.3808 23.0007 77.4356 22.0554 76.7445 20.849C76.0628 19.6426 75.7207 18.2651 75.7207 16.7166C75.7207 15.2144 76.072 13.8554 76.7723 12.6397C77.4726 11.4241 78.4224 10.4742 79.6196 9.7924C80.8168 9.11061 82.155 8.76855 83.6295 8.76855C85.2889 8.76855 86.7403 9.13603 87.9837 9.87329C89.2364 10.6105 90.1724 11.6575 90.7895 13.0118C91.4158 14.3569 91.6423 15.9008 91.4666 17.6434H79.6266C79.6589 18.3368 79.8323 18.9677 80.1466 19.5363C80.4979 20.1626 80.9855 20.6502 81.6118 21.0015C82.2382 21.3528 82.9385 21.5262 83.7127 21.5262C84.302 21.5169 84.8498 21.4152 85.3582 21.2211C85.8644 21.0177 86.2943 20.7473 86.6432 20.4052C87.0038 20.0632 87.2557 19.6772 87.4036 19.245H91.358C91.1177 20.3059 90.6392 21.2488 89.9205 22.0785C89.2017 22.899 88.298 23.5392 87.2118 23.9991C86.1232 24.4613 84.933 24.6878 83.6434 24.6786ZM80.1604 13.8416C79.9386 14.2275 79.786 14.6412 79.7005 15.085H87.5492C87.4914 14.5233 87.3181 14.0126 87.0292 13.5503C86.6964 13.0072 86.2457 12.5866 85.6749 12.2931C85.104 11.988 84.4592 11.8378 83.7404 11.8378C82.9754 11.8378 82.2798 12.0134 81.6535 12.3624C81.0248 12.7114 80.5279 13.206 80.1604 13.8416Z" fill="#1D1D1B"/>
<path d="M111.802 9.08531C111.802 7.85115 112.084 6.75335 112.646 5.79422C113.207 4.82584 113.996 4.07472 115.01 3.54084C116.034 2.99772 117.227 2.71575 118.59 2.69727V6.05538C117.955 6.06463 117.411 6.19868 116.958 6.45521C116.517 6.70482 116.175 7.06767 115.935 7.54839C115.715 7.98982 115.595 8.50059 115.579 9.083H118.507V12.277H115.576V24.3182H111.802V12.277H109.369V9.083H111.802V9.08531Z" fill="#1D1D1B"/>
<path fill-rule="evenodd" clip-rule="evenodd" d="M133.449 24.651C131.909 24.651 130.532 24.3136 129.316 23.6411C128.11 22.9593 127.16 22.0186 126.469 20.8215C125.787 19.615 125.445 18.2468 125.445 16.7168C125.445 15.1776 125.787 13.8048 126.469 12.5983C127.16 11.3827 128.11 10.4374 129.316 9.76486C130.532 9.09231 131.909 8.75488 133.449 8.75488C134.997 8.75488 136.379 9.09231 137.595 9.76486C138.82 10.4374 139.774 11.3781 140.456 12.5845C141.138 13.7909 141.485 15.1684 141.494 16.7168C141.485 18.2468 141.138 19.615 140.456 20.8215C139.783 22.0186 138.834 22.9593 137.609 23.6411C136.384 24.3159 134.997 24.651 133.449 24.651ZM133.449 21.182C134.26 21.182 134.979 20.9971 135.605 20.6296C136.231 20.2529 136.714 19.726 137.056 19.0534C137.398 18.3716 137.567 17.5928 137.567 16.7168C137.567 15.8317 137.396 15.0482 137.056 14.3664C136.714 13.6846 136.231 13.16 135.605 12.7902C134.979 12.4134 134.26 12.2239 133.449 12.2239C132.647 12.2239 131.932 12.4134 131.306 12.7902C130.689 13.16 130.208 13.6846 129.869 14.3664C129.527 15.0482 129.362 15.8317 129.372 16.7168C129.372 17.5928 129.543 18.3716 129.882 19.0534C130.234 19.726 130.712 20.2506 131.32 20.6296C131.937 20.9971 132.647 21.182 133.449 21.182Z" fill="#1D1D1B"/>
<path d="M145.573 9.08496H141.371L145.92 24.3178H149.597L152.587 14.5878L155.816 24.3178H159.438L164 9.08496H160.198L157.61 18.5677L154.751 9.08496H151.074L148.229 18.7757L145.573 9.08496Z" fill="#1D1D1B"/>
</svg>
